<svg width="70" height="70" viewBox="0 0 70 70" fill="none" xmlns="http://www.w3.org/2000/svg">
<path d="M17.322 5.45476C30.5095 21.6222 40.5124 -5.15257 53.1525 5.45476" stroke="#DDDDDD" stroke-width="3" stroke-linecap="round"/>
<path d="M17.322 16.5971C30.5095 32.7645 40.5124 5.98975 53.1525 16.5971" stroke="#DDDDDD" stroke-width="3" stroke-linecap="round"/>
<path d="M17.322 27.7419C30.5095 43.9093 40.5124 17.1345 53.1525 27.7419" stroke="#DDDDDD" stroke-width="3" stroke-linecap="round"/>
<path d="M5.22507 51.4687C4.87198 51.4687 4.54168 51.3685 4.23415 51.1681C3.92663 50.9678 3.67605 50.6788 3.48242 50.3012L3.97788 49.5151C4.14303 49.8234 4.32812 50.0623 4.53313 50.2318C4.74385 50.3936 4.97449 50.4745 5.22507 50.4745C5.90846 50.4745 6.25015 49.9274 6.25015 48.8331V44.2901H4.08893V43.2845H7.09585V48.7753C7.09585 49.6769 6.93639 50.3512 6.61747 50.7982C6.30425 51.2452 5.84012 51.4687 5.22507 51.4687ZM11.5353 51.4687C11.0797 51.4687 10.6554 51.3646 10.2625 51.1566C9.8752 50.9485 9.5392 50.6595 9.25446 50.2896C8.96971 49.912 8.74761 49.4727 8.58815 48.9718C8.42869 48.4709 8.34897 47.9237 8.34897 47.3303C8.34897 46.7369 8.42869 46.1898 8.58815 45.6889C8.74761 45.1879 8.96971 44.7525 9.25446 44.3826C9.5392 44.005 9.8752 43.7122 10.2625 43.5041C10.6497 43.296 11.074 43.192 11.5353 43.192C11.9909 43.192 12.4094 43.296 12.791 43.5041C13.1783 43.7045 13.5143 43.9934 13.799 44.3711C14.0894 44.741 14.3115 45.1764 14.4653 45.6773C14.6248 46.1782 14.7045 46.7292 14.7045 47.3303C14.7045 47.9314 14.6248 48.4824 14.4653 48.9834C14.3115 49.4843 14.0894 49.9235 13.799 50.3012C13.5143 50.6711 13.1783 50.9601 12.791 51.1681C12.4094 51.3685 11.9909 51.4687 11.5353 51.4687ZM11.5353 50.4399C11.8656 50.4399 12.1703 50.3628 12.4493 50.2087C12.734 50.0545 12.9789 49.8388 13.1839 49.5613C13.3947 49.2762 13.557 48.9448 13.6709 48.5672C13.7905 48.1896 13.8503 47.7773 13.8503 47.3303C13.8503 46.8834 13.7905 46.4711 13.6709 46.0934C13.557 45.7158 13.3947 45.3883 13.1839 45.1109C12.9789 44.8257 12.734 44.6061 12.4493 44.452C12.1703 44.2979 11.8656 44.2208 11.5353 44.2208C11.1993 44.2208 10.8889 44.2979 10.6042 44.452C10.3251 44.6061 10.0802 44.8257 9.86951 45.1109C9.6588 45.3883 9.49364 45.7158 9.37405 46.0934C9.26015 46.4711 9.2032 46.8834 9.2032 47.3303C9.2032 47.7773 9.26015 48.1896 9.37405 48.5672C9.49364 48.9448 9.6588 49.2762 9.86951 49.5613C10.0802 49.8388 10.3251 50.0545 10.6042 50.2087C10.8889 50.3628 11.1993 50.4399 11.5353 50.4399ZM15.0212 51.3762L17.7292 43.2845H18.5749L21.2913 51.3762H20.3944L17.9769 43.9318H18.3186L15.9011 51.3762H15.0212ZM16.1744 49.3533L16.4051 48.4285H19.7708L20.0185 49.3533H16.1744ZM18.7542 42.5909C18.6176 42.5909 18.4951 42.5523 18.3869 42.4753C18.2844 42.3982 18.1904 42.3096 18.105 42.2094C18.0196 42.1015 17.937 42.009 17.8573 41.932C17.7776 41.8549 17.6978 41.8164 17.6181 41.8164C17.4928 41.8164 17.3903 41.8819 17.3106 42.0129C17.2365 42.1362 17.1938 42.3096 17.1824 42.5331H16.7212C16.7325 42.1015 16.8123 41.7586 16.9603 41.5043C17.1084 41.25 17.3077 41.1228 17.5583 41.1228C17.695 41.1228 17.8174 41.1652 17.9256 41.25C18.0338 41.327 18.1306 41.4195 18.2161 41.5274C18.3015 41.6276 18.3812 41.7162 18.4553 41.7933C18.535 41.8703 18.6147 41.9089 18.6944 41.9089C18.8197 41.9089 18.9222 41.8472 19.002 41.7239C19.0817 41.6006 19.1244 41.4311 19.1301 41.2153H19.5914C19.5857 41.6237 19.506 41.9551 19.3522 42.2094C19.2041 42.4637 19.0048 42.5909 18.7542 42.5909ZM24.7992 51.4687C24.3436 51.4687 23.9193 51.3646 23.5265 51.1566C23.1393 50.9485 22.8033 50.6595 22.5185 50.2896C22.2338 49.912 22.0117 49.4727 21.8522 48.9718C21.6927 48.4709 21.613 47.9237 21.613 47.3303C21.613 46.7369 21.6927 46.1898 21.8522 45.6889C22.0117 45.1879 22.2338 44.7525 22.5185 44.3826C22.8033 44.005 23.1393 43.7122 23.5265 43.5041C23.9136 43.296 24.3379 43.192 24.7992 43.192C25.2548 43.192 25.6734 43.296 26.0549 43.5041C26.4422 43.7045 26.7782 43.9934 27.0629 44.3711C27.3534 44.741 27.5755 45.1764 27.7292 45.6773C27.8887 46.1782 27.9684 46.7292 27.9684 47.3303C27.9684 47.9314 27.8887 48.4824 27.7292 48.9834C27.5755 49.4843 27.3534 49.9235 27.0629 50.3012C26.7782 50.6711 26.4422 50.9601 26.0549 51.1681C25.6734 51.3685 25.2548 51.4687 24.7992 51.4687ZM24.7992 50.4399C25.1295 50.4399 25.4342 50.3628 25.7132 50.2087C25.998 50.0545 26.2429 49.8388 26.4479 49.5613C26.6586 49.2762 26.8209 48.9448 26.9348 48.5672C27.0544 48.1896 27.1142 47.7773 27.1142 47.3303C27.1142 46.8834 27.0544 46.4711 26.9348 46.0934C26.8209 45.7158 26.6586 45.3883 26.4479 45.1109C26.2429 44.8257 25.998 44.6061 25.7132 44.452C25.4342 44.2979 25.1295 44.2208 24.7992 44.2208C24.4632 44.2208 24.1528 44.2979 23.8681 44.452C23.5892 44.6061 23.3443 44.8257 23.1336 45.1109C22.9228 45.3883 22.7577 45.7158 22.6381 46.0934C22.5242 46.4711 22.4673 46.8834 22.4673 47.3303C22.4673 47.7773 22.5242 48.1896 22.6381 48.5672C22.7577 48.9448 22.9228 49.2762 23.1336 49.5613C23.3443 49.8388 23.5892 50.0545 23.8681 50.2087C24.1528 50.3628 24.4632 50.4399 24.7992 50.4399ZM33.2939 51.3762L30.6628 43.2845H31.5854L34.0029 50.752H33.4733L35.9078 43.2845H36.7621L34.1396 51.3762H33.2939ZM37.5245 51.3762V43.2845H38.3787V51.3762H37.5245ZM42.8428 51.4687C42.3872 51.4687 41.9658 51.3685 41.5786 51.1681C41.197 50.9601 40.8638 50.6711 40.5791 50.3012C40.3001 49.9235 40.0808 49.4843 39.9213 48.9834C39.7619 48.4824 39.6822 47.9314 39.6822 47.3303C39.6822 46.7292 39.7619 46.1782 39.9213 45.6773C40.0808 45.1764 40.3029 44.741 40.5876 44.3711C40.8724 43.9934 41.2055 43.7045 41.5871 43.5041C41.9744 43.296 42.3958 43.192 42.8514 43.192C43.3127 43.192 43.7369 43.2999 44.1242 43.5157C44.5171 43.7237 44.8503 44.0358 45.1236 44.452L44.5684 45.1802C44.3406 44.8566 44.0843 44.6177 43.7996 44.4635C43.5148 44.3017 43.2102 44.2208 42.8855 44.2208C42.5495 44.2208 42.2363 44.2979 41.9459 44.452C41.6611 44.6061 41.4134 44.8219 41.2027 45.0993C40.992 45.3767 40.8268 45.7081 40.7072 46.0934C40.5933 46.4711 40.5364 46.8834 40.5364 47.3303C40.5364 47.7773 40.5933 48.1934 40.7072 48.5788C40.8268 48.9564 40.992 49.2839 41.2027 49.5613C41.4134 49.8388 41.6611 50.0545 41.9459 50.2087C42.2363 50.3628 42.5495 50.4399 42.8855 50.4399C43.2102 50.4399 43.5148 50.3628 43.7996 50.2087C44.0843 50.0468 44.3406 49.8002 44.5684 49.4689L45.1236 50.1971C44.8503 50.6133 44.5171 50.9292 44.1242 51.145C43.7369 51.3608 43.3098 51.4687 42.8428 51.4687ZM47.4628 51.3762V44.2901H45.4127V43.2845H50.3587V44.2901H48.3085V51.3762H47.4628ZM53.9052 51.4687C53.4496 51.4687 53.0253 51.3646 52.6324 51.1566C52.2451 50.9485 51.9091 50.6595 51.6244 50.2896C51.3396 49.912 51.1175 49.4727 50.9581 48.9718C50.7986 48.4709 50.7189 47.9237 50.7189 47.3303C50.7189 46.7369 50.7986 46.1898 50.9581 45.6889C51.1175 45.1879 51.3396 44.7525 51.6244 44.3826C51.9091 44.005 52.2451 43.7122 52.6324 43.5041C53.0196 43.296 53.4439 43.192 53.9052 43.192C54.3608 43.192 54.7794 43.296 55.1609 43.5041C55.5482 43.7045 55.8842 43.9934 56.1689 44.3711C56.4594 44.741 56.6815 45.1764 56.8352 45.6773C56.9947 46.1782 57.0744 46.7292 57.0744 47.3303C57.0744 47.9314 56.9947 48.4824 56.8352 48.9834C56.6815 49.4843 56.4594 49.9235 56.1689 50.3012C55.8842 50.6711 55.5482 50.9601 55.1609 51.1681C54.7794 51.3685 54.3608 51.4687 53.9052 51.4687ZM53.9052 50.4399C54.2355 50.4399 54.5402 50.3628 54.8192 50.2087C55.104 50.0545 55.3489 49.8388 55.5539 49.5613C55.7646 49.2762 55.9269 48.9448 56.0408 48.5672C56.1604 48.1896 56.2202 47.7773 56.2202 47.3303C56.2202 46.8834 56.1604 46.4711 56.0408 46.0934C55.9269 45.7158 55.7646 45.3883 55.5539 45.1109C55.3489 44.8257 55.104 44.6061 54.8192 44.452C54.5402 44.2979 54.2355 44.2208 53.9052 44.2208C53.5692 44.2208 53.2588 44.2979 52.9741 44.452C52.695 44.6061 52.4502 44.8257 52.2394 45.1109C52.0287 45.3883 51.8636 45.7158 51.744 46.0934C51.6301 46.4711 51.5731 46.8834 51.5731 47.3303C51.5731 47.7773 51.6301 48.1896 51.744 48.5672C51.8636 48.9448 52.0287 49.2762 52.2394 49.5613C52.4502 49.8388 52.695 50.0545 52.9741 50.2087C53.2588 50.3628 53.5692 50.4399 53.9052 50.4399ZM58.38 51.3762V43.2845H60.7121C61.236 43.2845 61.683 43.3962 62.0532 43.6197C62.4234 43.8432 62.7081 44.1668 62.9074 44.5907C63.1068 45.0145 63.2064 45.5193 63.2064 46.105C63.2064 46.6907 63.1068 47.1955 62.9074 47.6193C62.7081 48.0355 62.4234 48.3553 62.0532 48.5788C61.683 48.8023 61.236 48.914 60.7121 48.914H58.8498L59.2342 48.3823V51.3762H58.38ZM62.3778 51.3762L60.8573 48.4401H61.7713L63.3089 51.3762H62.3778ZM59.2342 48.4978L58.8498 47.9314H60.6864C61.2331 47.9314 61.646 47.7734 61.9251 47.4575C62.2098 47.1338 62.3522 46.683 62.3522 46.105C62.3522 45.527 62.2098 45.0801 61.9251 44.7641C61.646 44.4481 61.2331 44.2901 60.6864 44.2901H58.8498L59.2342 43.7122V48.4978Z" fill="#DDDDDD"/>
<path d="M0.113403 69.6789L4.40737 56.6422H6.6094L10.9171 69.6789H8.57747L5.05422 58.1693H5.93503L2.39801 69.6789H0.113403ZM2.26039 66.8853L2.85218 64.5946H7.80676L8.41232 66.8853H2.26039ZM11.9167 69.6789V56.6422H13.7609L17.8622 65.8424H16.885L20.9175 56.6422H22.7479L22.7754 69.6789H20.6835L20.6697 60.9815H21.0551L17.8346 68.3007H16.8299L13.5407 60.9815H14.0086V69.6789H11.9167ZM25.0612 69.6789V56.6422H29.768C30.9791 56.6422 31.8875 56.9527 32.493 57.5734C33.1076 58.1941 33.4151 59.0135 33.4151 60.0317C33.4151 60.7147 33.2913 61.3107 33.0435 61.8196C32.7958 62.3164 32.4563 62.701 32.0251 62.9743C31.5937 63.2476 31.0983 63.384 30.5387 63.384L30.8002 62.6204C31.4058 62.6204 31.9425 62.7569 32.4105 63.0302C32.8784 63.2909 33.2407 63.682 33.4977 64.2035C33.7637 64.7249 33.8968 65.3643 33.8968 66.1217C33.8968 67.2392 33.571 68.1145 32.9197 68.7477C32.2681 69.3684 31.3094 69.6789 30.0433 69.6789H25.0612ZM27.277 67.4068H29.8781C30.4561 67.4068 30.8918 67.2825 31.1856 67.0343C31.4884 66.7736 31.6397 66.3638 31.6397 65.8051C31.6397 65.2589 31.4884 64.8553 31.1856 64.5946C30.8918 64.3213 30.4561 64.1848 29.8781 64.1848H27.1118V61.9872H29.4928C30.034 61.9872 30.4469 61.863 30.7314 61.6148C31.0249 61.354 31.1718 60.9629 31.1718 60.4415C31.1718 59.9325 31.0249 59.5536 30.7314 59.3054C30.4469 59.0447 30.034 58.9143 29.4928 58.9143H27.277V67.4068ZM35.5847 69.6789V56.6422H39.7548C40.6173 56.6422 41.3605 56.8345 41.9843 57.2195C42.6084 57.592 43.0901 58.1321 43.4294 58.8398C43.769 59.5475 43.9386 60.3917 43.9386 61.3726C43.9386 62.3411 43.769 63.1792 43.4294 63.8869C43.0901 64.5821 42.6084 65.116 41.9843 65.4885C41.3605 65.861 40.6173 66.0472 39.7548 66.0472H36.8233L37.8142 64.7249V69.6789H35.5847ZM41.7091 69.6789L39.3006 64.9484H41.6815L44.1175 69.6789H41.7091ZM37.8142 65.0602L36.8233 63.6448H39.6309C40.319 63.6448 40.833 63.446 41.1723 63.0488C41.5119 62.6391 41.6815 62.0804 41.6815 61.3726C41.6815 60.6524 41.5119 60.0937 41.1723 59.6965C40.833 59.2993 40.319 59.1005 39.6309 59.1005H36.8233L37.8142 57.6665V65.0602ZM50.3846 69.9024C49.6229 69.9024 48.9165 69.7348 48.2651 69.3995C47.6228 69.0643 47.063 68.5926 46.586 67.9841C46.1181 67.3756 45.751 66.6618 45.485 65.8424C45.228 65.0229 45.0997 64.129 45.0997 63.1605C45.0997 62.1921 45.228 61.2982 45.485 60.4787C45.751 59.6593 46.1226 58.9454 46.5998 58.337C47.0768 57.7285 47.6365 57.2568 48.2789 56.9215C48.921 56.5863 49.6184 56.4187 50.3708 56.4187C51.1322 56.4187 51.8296 56.5863 52.4627 56.9215C53.1048 57.2568 53.6601 57.7285 54.128 58.337C54.605 58.9454 54.9766 59.6593 55.2428 60.4787C55.5088 61.2856 55.6419 62.1796 55.6419 63.1605C55.6419 64.129 55.5088 65.029 55.2428 65.861C54.9766 66.6804 54.605 67.3943 54.128 68.0027C53.6601 68.5987 53.1048 69.0643 52.4627 69.3995C51.8296 69.7348 51.1368 69.9024 50.3846 69.9024ZM50.3708 67.3323C50.8019 67.3323 51.1966 67.2331 51.5544 67.0343C51.9212 66.8355 52.2425 66.5501 52.5178 66.1776C52.793 65.8051 53.004 65.3643 53.1509 64.8553C53.3068 64.3464 53.3848 63.7812 53.3848 63.1605C53.3848 62.5398 53.3068 61.9747 53.1509 61.4658C53.004 60.9568 52.793 60.516 52.5178 60.1435C52.2515 59.771 51.935 59.4855 51.5681 59.2868C51.2011 59.088 50.8019 58.9888 50.3708 58.9888C49.9394 58.9888 49.5403 59.088 49.1734 59.2868C48.8156 59.4855 48.4991 59.771 48.2238 60.1435C47.9486 60.516 47.7329 60.9568 47.577 61.4658C47.4301 61.9747 47.3568 62.5398 47.3568 63.1605C47.3568 63.769 47.4301 64.3338 47.577 64.8553C47.7329 65.3643 47.9438 65.8051 48.21 66.1776C48.4853 66.5501 48.8064 66.8355 49.1734 67.0343C49.5403 67.2331 49.9394 67.3323 50.3708 67.3323ZM56.6041 69.6789V67.7234L62.5634 58.0017L62.8386 59.1005H56.7142V56.6422H64.8205V58.5977L58.875 68.3193L58.5997 67.2205H65.0269V69.6789H56.6041ZM66.4568 69.6789V56.6422H68.6863V69.6789H66.4568Z" fill="#DDDDDD"/>
</svg>
