<svg width="40" height="40" viewBox="0 0 40 40" fill="none" xmlns="http://www.w3.org/2000/svg">
<g clip-path="url(#clip0_462_288)">
<path d="M24.55 0.0979786C23.4875 -0.284834 22.3813 0.488604 22.075 1.81673L14.075 36.8167C13.7688 38.1449 14.3875 39.5277 15.45 39.9105C16.5125 40.2933 17.6188 39.5199 17.925 38.1917L25.925 3.19173C26.2313 1.8636 25.6125 0.480791 24.55 0.0979786ZM29.5875 9.48079C28.8063 10.4574 28.8063 12.0433 29.5875 13.0199L35.1688 20.0042L29.5813 26.9886C28.8 27.9652 28.8 29.5511 29.5813 30.5277C30.3625 31.5042 31.6312 31.5042 32.4125 30.5277L39.4125 21.7777C40.1937 20.8011 40.1937 19.2152 39.4125 18.2386L32.4125 9.4886C31.6312 8.51204 30.3625 8.51204 29.5813 9.4886L29.5875 9.48079ZM10.4188 9.48079C9.6375 8.50423 8.36875 8.50423 7.5875 9.48079L0.587502 18.2308C-0.193748 19.2074 -0.193748 20.7933 0.587502 21.7699L7.5875 30.5199C8.36875 31.4964 9.6375 31.4964 10.4188 30.5199C11.2 29.5433 11.2 27.9574 10.4188 26.9808L4.83125 20.0042L10.4188 13.0199C11.2 12.0433 11.2 10.4574 10.4188 9.48079Z" fill="#DDDDDD"/>
</g>
<defs>
<clipPath id="clip0_462_288">
<rect width="40" height="40" fill="white"/>
</clipPath>
</defs>
</svg>
