<svg width="40" height="40" viewBox="0 0 40 40" fill="none" xmlns="http://www.w3.org/2000/svg">
<path d="M24 7.5V25H4V7.5H24ZM4 2.5C1.79375 2.5 0 4.74219 0 7.5V25C0 27.7578 1.79375 30 4 30H11.3313L10.6625 32.5H6C4.89375 32.5 4 33.6172 4 35C4 36.3828 4.89375 37.5 6 37.5H22C23.1063 37.5 24 36.3828 24 35C24 33.6172 23.1063 32.5 22 32.5H17.3312L16.6625 30H24C26.2062 30 28 27.7578 28 25V7.5C28 4.74219 26.2062 2.5 24 2.5H4ZM33 2.5C31.3438 2.5 30 4.17969 30 6.25V33.75C30 35.8203 31.3438 37.5 33 37.5H37C38.6562 37.5 40 35.8203 40 33.75V6.25C40 4.17969 38.6562 2.5 37 2.5H33ZM34 7.5H36C36.55 7.5 37 8.0625 37 8.75C37 9.4375 36.55 10 36 10H34C33.45 10 33 9.4375 33 8.75C33 8.0625 33.45 7.5 34 7.5ZM33 13.75C33 13.0625 33.45 12.5 34 12.5H36C36.55 12.5 37 13.0625 37 13.75C37 14.4375 36.55 15 36 15H34C33.45 15 33 14.4375 33 13.75ZM35 31.25C33.8937 31.25 33 30.1328 33 28.75C33 27.3672 33.8937 26.25 35 26.25C36.1063 26.25 37 27.3672 37 28.75C37 30.1328 36.1063 31.25 35 31.25Z" fill="#DDDDDD"/>
</svg>
