<svg width="15" height="15" viewBox="0 0 15 15" fill="none" xmlns="http://www.w3.org/2000/svg">
<path d="M7.5 0.9375C3.87598 0.9375 0.9375 3.95215 0.9375 7.66699C0.9375 10.6406 2.81836 13.1602 5.42578 14.0508C5.46235 14.0587 5.49968 14.0627 5.53711 14.0625C5.78027 14.0625 5.87402 13.8838 5.87402 13.7285C5.87402 13.5674 5.86816 13.1455 5.86523 12.583C5.64816 12.6339 5.42608 12.6604 5.20312 12.6621C3.94043 12.6621 3.65332 11.6807 3.65332 11.6807C3.35449 10.9043 2.92383 10.6963 2.92383 10.6963C2.35254 10.2949 2.9209 10.2832 2.96484 10.2832H2.96777C3.62695 10.3418 3.97266 10.9805 3.97266 10.9805C4.30078 11.5547 4.74023 11.7158 5.13281 11.7158C5.39239 11.7106 5.64796 11.6507 5.88281 11.54C5.94141 11.1064 6.11133 10.8105 6.29883 10.6406C4.84277 10.4707 3.31055 9.89355 3.31055 7.31543C3.31055 6.58008 3.56543 5.97949 3.98438 5.51074C3.91699 5.34082 3.69141 4.65527 4.04883 3.72949C4.09677 3.71802 4.14605 3.71309 4.19531 3.71484C4.43262 3.71484 4.96875 3.80566 5.85352 4.4209C6.92858 4.12011 8.06556 4.12011 9.14062 4.4209C10.0254 3.80566 10.5615 3.71484 10.7988 3.71484C10.8481 3.71309 10.8974 3.71802 10.9453 3.72949C11.3027 4.65527 11.0771 5.34082 11.0098 5.51074C11.4287 5.98242 11.6836 6.58301 11.6836 7.31543C11.6836 9.89941 10.1484 10.4678 8.68652 10.6348C8.9209 10.8428 9.13184 11.2529 9.13184 11.8799C9.13184 12.7793 9.12305 13.5059 9.12305 13.7256C9.12305 13.8838 9.21387 14.0625 9.45703 14.0625C9.49639 14.0627 9.53567 14.0587 9.57422 14.0508C12.1846 13.1602 14.0625 10.6377 14.0625 7.66699C14.0625 3.95215 11.124 0.9375 7.5 0.9375Z" fill="white"/>
</svg>
