<svg width="40" height="40" viewBox="0 0 40 40" fill="none" xmlns="http://www.w3.org/2000/svg">
<path d="M27.2914 5.41641C29.2236 5.42218 31.0751 6.19231 32.4414 7.55861C33.8077 8.92491 34.5778 10.7764 34.5836 12.7086V27.2914C34.5778 29.2236 33.8077 31.0751 32.4414 32.4414C31.0751 33.8077 29.2236 34.5778 27.2914 34.5836H12.7086C10.7764 34.5778 8.92491 33.8077 7.55861 32.4414C6.19231 31.0751 5.42218 29.2236 5.41641 27.2914V12.7086C5.42218 10.7764 6.19231 8.92491 7.55861 7.55861C8.92491 6.19231 10.7764 5.42218 12.7086 5.41641H27.2914ZM27.2914 2.5H12.7086C7.09375 2.5 2.5 7.09375 2.5 12.7086V27.2914C2.5 32.9062 7.09375 37.5 12.7086 37.5H27.2914C32.9062 37.5 37.5 32.9062 37.5 27.2914V12.7086C37.5 7.09375 32.9062 2.5 27.2914 2.5Z" fill="white"/>
<path d="M29.4788 12.7086C29.0462 12.7086 28.6233 12.5803 28.2635 12.3399C27.9038 12.0996 27.6234 11.7579 27.4579 11.3582C27.2923 10.9585 27.249 10.5187 27.3334 10.0943C27.4178 9.67 27.6261 9.28022 27.9321 8.97429C28.238 8.66837 28.6278 8.46003 29.0521 8.37562C29.4764 8.29122 29.9163 8.33454 30.316 8.5001C30.7157 8.66567 31.0573 8.94605 31.2977 9.30578C31.5381 9.66551 31.6663 10.0884 31.6663 10.5211C31.667 10.8085 31.6108 11.0933 31.5011 11.3589C31.3914 11.6246 31.2303 11.866 31.027 12.0693C30.8238 12.2725 30.5824 12.4336 30.3167 12.5433C30.051 12.653 29.7663 12.7092 29.4788 12.7086ZM19.9999 14.1664C21.1537 14.1664 22.2816 14.5085 23.2409 15.1495C24.2002 15.7905 24.9479 16.7016 25.3895 17.7676C25.831 18.8335 25.9465 20.0065 25.7214 21.1381C25.4964 22.2697 24.9408 23.3091 24.1249 24.125C23.3091 24.9408 22.2696 25.4964 21.138 25.7215C20.0064 25.9466 18.8335 25.8311 17.7675 25.3895C16.7016 24.948 15.7905 24.2003 15.1495 23.241C14.5085 22.2816 14.1663 21.1538 14.1663 20C14.168 18.4533 14.7831 16.9705 15.8768 15.8769C16.9704 14.7832 18.4533 14.1681 19.9999 14.1664ZM19.9999 11.25C18.2694 11.25 16.5776 11.7632 15.1387 12.7246C13.6998 13.6861 12.5783 15.0527 11.916 16.6515C11.2537 18.2504 11.0805 20.0097 11.4181 21.707C11.7557 23.4044 12.589 24.9635 13.8128 26.1872C15.0365 27.4109 16.5956 28.2443 18.2929 28.5819C19.9902 28.9195 21.7496 28.7462 23.3484 28.0839C24.9473 27.4217 26.3138 26.3002 27.2753 24.8612C28.2368 23.4223 28.7499 21.7306 28.7499 20C28.7499 17.6794 27.8281 15.4538 26.1871 13.8128C24.5462 12.1719 22.3206 11.25 19.9999 11.25Z" fill="white"/>
</svg>
