<svg width="12" height="12" viewBox="0 0 12 12" fill="none" xmlns="http://www.w3.org/2000/svg">
<g clip-path="url(#clip0)">
<path d="M6 8.25018C4.75734 8.25018 3.77109 7.24284 3.77109 6.02127C3.77109 4.79971 4.73672 3.75018 6 3.75018C7.26328 3.75018 8.2289 4.75752 8.2289 5.97908C8.2289 7.20065 7.24218 8.25018 6 8.25018ZM11.9367 3.84627L10.4555 6.00018L11.9355 8.13323C12.0839 8.34709 11.9614 8.64276 11.7052 8.68916L9.15056 9.15088L8.68884 11.7056C8.64255 11.9617 8.34688 12.0843 8.1329 11.9358L6 10.4348L3.84609 11.915C3.63222 12.0634 3.33656 11.9409 3.29015 11.6847L2.85 9.12908L0.294377 8.66737C0.0382753 8.62283 -0.0842792 8.32518 0.0641269 8.13299L1.5443 5.97908L0.0642206 3.84604C-0.0841855 3.63217 0.0383222 3.33651 0.29447 3.2901L2.84916 2.82838L3.31087 0.273695C3.35716 0.0175228 3.65283 -0.105055 3.86681 0.0434446L6 1.52362L8.13304 0.0435381C8.34695 -0.104915 8.64281 0.0175934 8.68898 0.273742L9.1507 2.82843L11.7054 3.29015C11.9625 3.33533 12.0844 3.63299 11.9367 3.84627ZM6 3.00018C4.3432 3.00018 3.02109 4.34338 3.02109 5.97908C3.02109 7.63588 4.36429 8.95799 6 8.95799C7.6357 8.95799 8.9789 7.61502 8.9789 5.97908C8.9789 4.32205 7.65703 3.00018 6 3.00018Z" fill="black"/>
</g>
<defs>
<clipPath id="clip0">
<rect width="12" height="12" fill="white" transform="matrix(1 0 0 -1 0 12)"/>
</clipPath>
</defs>
</svg>
