<svg width="120" height="120" viewBox="0 0 120 120" fill="none" xmlns="http://www.w3.org/2000/svg">
<g clip-path="url(#clip0_422_473)">
<path d="M120 18.75V30C120 40.3594 93.1339 48.75 60 48.75C26.8661 48.75 0 40.3594 0 30V18.75C0 8.39062 26.8661 0 60 0C93.1339 0 120 8.39062 120 18.75ZM105.321 50.3203C110.893 48.5859 116.009 46.3594 120 43.6172V67.5C120 77.8594 93.1339 86.25 60 86.25C26.8661 86.25 0 77.8594 0 67.5V43.6172C3.99107 46.3828 9.10714 48.5859 14.6786 50.3203C26.7054 54.0703 42.7232 56.25 60 56.25C77.2768 56.25 93.2946 54.0703 105.321 50.3203ZM0 81.1172C3.99107 83.8828 9.10714 86.0859 14.6786 87.8203C26.7054 91.5703 42.7232 93.75 60 93.75C77.2768 93.75 93.2946 91.5703 105.321 87.8203C110.893 86.0859 116.009 83.8594 120 81.1172V101.25C120 111.609 93.1339 120 60 120C26.8661 120 0 111.609 0 101.25V81.1172Z" fill="#DDDDDD"/>
</g>
<defs>
<clipPath id="clip0_422_473">
<rect width="120" height="120" rx="10" fill="white"/>
</clipPath>
</defs>
</svg>
