<svg width="120" height="120" viewBox="0 0 120 120" fill="none" xmlns="http://www.w3.org/2000/svg">
<path d="M50.693 37.1227H32.1094C22.7344 34.6641 1.52578 35.304 1.52578 54.6516C1.52578 61.704 5.04141 66.6586 9.72891 68.9485C3.84609 74.3391 1.05703 76.8821 1.05703 80.4821C1.05703 83.0602 2.10469 85.4368 5.25 86.7657C1.90547 89.9086 0 92.1915 0 96.4805C0 104.006 6.57422 108.391 23.8195 108.391C40.4016 108.391 50.0203 102.199 50.0203 91.2399C50.0203 77.4915 39.4359 77.9977 14.482 76.4743L17.6297 71.4235C24.0211 73.2 45.45 73.7672 45.45 55.5118C45.45 51.129 43.6383 48.0797 41.9344 45.886L50.7023 45.2204L50.693 37.1227ZM35.8289 93.818C35.8289 101.332 11.2453 101.341 11.2453 94.3876C11.2453 92.4797 12.4805 90.8719 13.7227 89.3391C31.9359 90.5813 35.8289 90.129 35.8289 93.818ZM23.9203 62.2758C11.5453 62.2758 12.0938 45.5977 24.2016 45.5977C35.8125 45.5977 36.1125 62.2758 23.9203 62.2758ZM55.1625 85.8329V78.3094C61.432 77.4516 61.5469 77.8407 61.5469 75.7313V47.7211C61.5469 45.729 61.0664 45.9915 55.1625 43.9102L56.2102 36.1946H75.9375V75.736C75.9375 77.2618 76.0312 77.4516 77.4633 77.6438L82.3219 78.3094V85.8329H55.1625ZM67.4555 28.5727C62.025 28.5727 58.8797 25.425 58.8797 19.9922C58.8797 14.5594 62.025 11.6086 67.4555 11.6086C72.982 11.6086 76.1273 14.5665 76.1273 19.9922C76.1273 25.418 72.982 28.5727 67.4555 28.5727ZM120 82.1391C115.901 84.1383 109.898 85.9501 104.466 85.9501C93.1266 85.9501 88.8398 81.3797 88.8398 70.6079V45.6446C88.8398 44.3743 89.0859 44.693 81.4078 44.693V36.211C89.7937 35.2571 93.1266 31.0547 94.1742 20.679H103.228C103.228 36.1079 102.914 35.1657 103.992 35.1657H117.422V44.693H103.228V67.4625C103.228 69.0844 102.075 79.5118 117.424 73.7532L120 82.1391Z" fill="#DDDDDD"/>
</svg>
