<svg width="120" height="120" viewBox="0 0 120 120" fill="none" xmlns="http://www.w3.org/2000/svg">
<g clip-path="url(#clip0_422_478)">
<path d="M86.7937 73.3359C89.8562 71.7656 94.1062 70.4062 94.1062 70.4062C94.1062 70.4062 82.0125 72.0469 69.9813 72.7969C55.2625 73.7109 39.45 73.8984 31.5125 73.1016C12.7312 71.2266 41.825 66.0469 41.825 66.0469C41.825 66.0469 30.5437 65.4844 16.6375 70.5C0.231251 76.4531 57.2625 79.1719 86.7937 73.3359ZM60.1062 65.8125C54.1687 55.8047 34.1375 47.0156 60.1062 31.6406C92.5 12.4687 75.8875 0 75.8875 0C82.6062 19.8047 52.2625 25.8047 41.2937 38.1094C33.825 46.5234 44.95 55.5469 60.1062 65.8125ZM95.9187 24.5156C95.95 24.5156 41.1688 34.7812 67.325 57.375C75.0437 64.0312 65.2938 70.0312 65.2938 70.0312C65.2938 70.0312 84.8875 62.4375 75.8875 52.9453C67.4812 44.0859 61.0437 39.6797 95.9187 24.5156ZM94.0125 87.9141C93.8417 88.1374 93.6315 88.3424 93.3875 88.5234C133.481 80.625 118.731 60.6562 99.575 65.7187C98.5404 66.0039 97.6464 66.519 97.0125 67.1953C98.1311 66.8917 99.2807 66.6565 100.45 66.4922C110.137 64.9688 124.044 76.2188 94.0125 87.9141ZM108.75 102.516C108.75 102.516 113.281 105.305 103.781 107.484C85.6875 111.586 28.5312 112.828 12.6562 107.648C6.9375 105.797 17.6562 103.195 21.0312 102.656C24.5312 102.094 26.5625 102.187 26.5625 102.187C20.2187 98.8359 -14.4687 108.773 8.9375 111.609C72.7625 119.391 125.312 108.117 108.75 102.516ZM38.8875 92.8125C14.2938 97.9687 53.8562 108.609 85.1687 98.5547C82.1149 97.6649 79.1669 96.5829 76.3562 95.3203C62.3875 97.3125 55.9187 97.4531 43.2312 96.375C32.7625 95.4844 38.8875 92.8125 38.8875 92.8125ZM95.075 115.594C70.4812 119.062 40.1375 118.664 22.1687 116.437C22.1687 116.414 25.8563 118.711 44.7937 119.625C73.6062 121.008 117.856 118.852 118.887 108.633C118.887 108.633 116.887 112.5 95.075 115.594ZM81.45 82.7344C62.95 85.4062 52.2312 85.3359 38.7 84.2812C28.2312 83.4609 35.075 79.6641 35.075 79.6641C7.95 86.4141 50.1375 94.0547 88.0437 85.7344C85.5938 85.0856 83.349 84.0642 81.45 82.7344Z" fill="#DDDDDD"/>
</g>
<defs>
<clipPath id="clip0_422_478">
<rect width="120" height="120" rx="10" fill="white"/>
</clipPath>
</defs>
</svg>
