<svg width="120" height="120" viewBox="0 0 120 120" fill="none" xmlns="http://www.w3.org/2000/svg">
<path d="M0 7.5V112.5H120V7.5H0ZM65.3036 89.3906C65.3036 99.6094 58.4464 104.273 48.4554 104.273C39.4286 104.273 34.2054 100.195 31.5268 95.25L40.7143 90.3984C42.4821 93.1406 44.0893 95.4609 47.9732 95.4609C51.6696 95.4609 54.0268 94.1953 54.0268 89.25V55.7109H65.3036V89.3906ZM91.9821 104.273C81.5089 104.273 74.7321 99.9141 71.4375 94.1953L80.625 89.5547C83.0357 93 86.1964 95.5547 91.7411 95.5547C96.4018 95.5547 99.4018 93.5156 99.4018 90.6797C99.4018 87.3047 96.3482 86.1094 91.1786 84.1172L88.3661 83.0625C80.2232 80.0391 74.8393 76.2188 74.8393 68.1797C74.8393 60.7734 81.2946 55.1484 91.3393 55.1484C98.5179 55.1484 103.661 57.3281 107.357 63.0469L98.5714 67.9688C96.6429 64.9453 94.5536 63.75 91.3125 63.75C88.0179 63.75 85.9286 65.5781 85.9286 67.9688C85.9286 70.9219 88.0179 72.1172 92.8661 73.9688L95.6786 75.0234C105.268 78.6094 110.652 82.2891 110.652 90.5391C110.652 99.3984 102.67 104.273 91.9821 104.273Z" fill="#DDDDDD"/>
</svg>
