<svg width="120" height="120" viewBox="0 0 120 120" fill="none" xmlns="http://www.w3.org/2000/svg">
<path d="M108 9.59998H12C10.6728 9.59998 9.60001 10.6752 9.60001 12V108C9.60001 109.325 10.6728 110.4 12 110.4H108C109.327 110.4 110.4 109.325 110.4 108V12C110.4 10.6752 109.327 9.59998 108 9.59998ZM69.6 63.468H57.6V100.8H48V63.468H36V55.2H69.6V63.468ZM72.2904 98.6688V88.6896C72.2904 88.6896 77.7408 92.7984 84.2808 92.7984C90.8208 92.7984 90.5688 88.5216 90.5688 87.936C90.5688 81.7296 72.0384 81.7296 72.0384 67.98C72.0384 49.2816 99.0384 56.6592 99.0384 56.6592L98.7024 65.5488C98.7024 65.5488 94.1736 62.5296 89.0592 62.5296C83.9448 62.5296 82.0992 64.9608 82.0992 67.56C82.0992 74.268 100.798 73.5984 100.798 87.0984C100.8 107.892 72.2904 98.6688 72.2904 98.6688Z" fill="#DDDDDD"/>
</svg>
